<?xml version="1.0" encoding="utf-8"?>
<!-- Generator: Adobe Illustrator 18.1.0, SVG Export Plug-In . SVG Version: 6.00 Build 0)  -->
<!DOCTYPE svg PUBLIC "-//W3C//DTD SVG 1.1//EN" "http://www.w3.org/Graphics/SVG/1.1/DTD/svg11.dtd">
<svg version="1.1" id="Layer_2" xmlns="http://www.w3.org/2000/svg" xmlns:xlink="http://www.w3.org/1999/xlink" x="0px" y="0px"
	 width="49.5px" height="49.5px" viewBox="0 0 49.5 49.5" style="enable-background:new 0 0 49.5 49.5;" xml:space="preserve">
<style type="text/css">
	.st0{fill:none;}
	.st1{fill-rule:evenodd;clip-rule:evenodd;}
</style>
<g>
	<g id="communication_-_bubble_chat_talk_conversation_5_">
		<g>
			<path d="M41.4,0.2H14.4c-4.5,0-8.1,3.6-8.1,8.1v17.6c0,4.5,3.6,6.8,8.1,6.8h16.2l10.8,10.8V32.7c4.5,0,8.1-2.3,8.1-6.8V8.3
				C49.6,3.9,45.9,0.2,41.4,0.2z M46.9,25.9c0,3-2.4,4.1-5.4,4.1h-2.7v6.8L32,30H14.4c-3,0-5.4-1.1-5.4-4.1V8.3c0-3,2.4-5.4,5.4-5.4
				h27.1c3,0,5.4,2.4,5.4,5.4V25.9z"/>
		</g>
	</g>
	<g id="communication_-_bubble_chat_talk_conversation_6_">
		<path d="M11,41v-7H9c-3,0-7-1.6-7-4.6V11.8c0-2,0-3.6,3-4.7v0C5,6,5.4,5,5.8,4C2.3,4.9,0,8.1,0,11.8v17.6c0,4.5,5,6.8,9,6.8V47
			l10.8-10h11.6l-2.1-3H19"/>
	</g>
	<line class="st0" x1="31" y1="36.4" x2="28.8" y2="34.3"/>
</g>
</svg>
