<?xml version="1.0" encoding="utf-8"?>
<!-- Generator: Adobe Illustrator 18.1.0, SVG Export Plug-In . SVG Version: 6.00 Build 0)  -->
<!DOCTYPE svg PUBLIC "-//W3C//DTD SVG 1.1//EN" "http://www.w3.org/Graphics/SVG/1.1/DTD/svg11.dtd">
<svg version="1.1" id="Layer_2" xmlns="http://www.w3.org/2000/svg" xmlns:xlink="http://www.w3.org/1999/xlink" x="0px" y="0px"
	 width="50px" height="50px" viewBox="0 0 50 50" style="enable-background:new 0 0 50 50;" xml:space="preserve">
<style type="text/css">
	.st0{fill:none;}
	.st1{fill-rule:evenodd;clip-rule:evenodd;}
</style>
<g>
	<g>
		<path d="M46.8,26.6c0,0.8-0.3,1.5-0.8,2.1l-18.6,20c-0.6,0.6-1.4,1-2.3,1c-0.9,0-1.7-0.4-2.3-1l-18.6-20c-1.2-1.3-1.1-3.3,0.2-4.4
			c1.3-1.2,3.3-1.1,4.4,0.2L25,42l16.3-17.5c1.2-1.3,3.2-1.3,4.4-0.2C46.4,24.9,46.8,25.7,46.8,26.6z"/>
	</g>
	<g>
		<path d="M28.1,3.4v40c0,1.7-1.4,3.1-3.1,3.1s-3.1-1.4-3.1-3.1v-40c0-1.7,1.4-3.1,3.1-3.1S28.1,1.7,28.1,3.4z"/>
	</g>
</g>
</svg>
