<?xml version="1.0" encoding="utf-8"?>
<!-- Generator: Adobe Illustrator 18.1.0, SVG Export Plug-In . SVG Version: 6.00 Build 0)  -->
<!DOCTYPE svg PUBLIC "-//W3C//DTD SVG 1.1//EN" "http://www.w3.org/Graphics/SVG/1.1/DTD/svg11.dtd">
<svg version="1.1" id="Layer_2" xmlns="http://www.w3.org/2000/svg" xmlns:xlink="http://www.w3.org/1999/xlink" x="0px" y="0px"
	 width="50px" height="50px" viewBox="0 0 50 50" style="enable-background:new 0 0 50 50;" xml:space="preserve">
<style type="text/css">
	.st0{fill:none;}
	.st1{fill-rule:evenodd;clip-rule:evenodd;}
</style>
<path d="M26.9,24.5L47.5,4c0.6-0.6,0.6-1.7,0-2.3c-0.6-0.6-1.7-0.6-2.3,0L24.6,22.2L4,1.6C3.3,1,2.3,1,1.6,1.6C1,2.3,1,3.3,1.6,4
	l20.6,20.5L1.6,45c-0.6,0.6-0.6,1.7,0,2.3C2.3,48,3.3,48,4,47.4l20.6-20.5l20.6,20.5c0.6,0.6,1.7,0.6,2.3,0c0.6-0.6,0.6-1.7,0-2.3
	L26.9,24.5z"/>
</svg>
