<?xml version="1.0" encoding="utf-8"?>
<!-- Generator: Adobe Illustrator 18.1.0, SVG Export Plug-In . SVG Version: 6.00 Build 0)  -->
<!DOCTYPE svg PUBLIC "-//W3C//DTD SVG 1.1//EN" "http://www.w3.org/Graphics/SVG/1.1/DTD/svg11.dtd">
<svg version="1.1" id="Layer_2" xmlns="http://www.w3.org/2000/svg" xmlns:xlink="http://www.w3.org/1999/xlink" x="0px" y="0px"
	 width="50px" height="50px" viewBox="0 0 50 50" style="enable-background:new 0 0 50 50;" xml:space="preserve">
<style type="text/css">
	.st0{fill:none;}
	.st1{fill-rule:evenodd;clip-rule:evenodd;}
</style>
<g>
	<g>
		<path d="M26.6,3.2c0.8,0,1.5,0.3,2.1,0.8l20,18.6c0.6,0.6,1,1.4,1,2.3c0,0.9-0.4,1.7-1,2.3l-20,18.6c-1.3,1.2-3.3,1.1-4.4-0.2
			c-1.2-1.3-1.1-3.3,0.2-4.4L42,25L24.4,8.7c-1.3-1.2-1.3-3.2-0.2-4.4C24.9,3.6,25.7,3.2,26.6,3.2z"/>
	</g>
	<g>
		<path d="M3.4,21.9h40c1.7,0,3.1,1.4,3.1,3.1s-1.4,3.1-3.1,3.1h-40c-1.7,0-3.1-1.4-3.1-3.1S1.7,21.9,3.4,21.9z"/>
	</g>
</g>
</svg>
