<?xml version="1.0" encoding="utf-8"?>
<!-- Generator: Adobe Illustrator 18.1.0, SVG Export Plug-In . SVG Version: 6.00 Build 0)  -->
<!DOCTYPE svg PUBLIC "-//W3C//DTD SVG 1.1//EN" "http://www.w3.org/Graphics/SVG/1.1/DTD/svg11.dtd">
<svg version="1.1" id="Layer_2" xmlns="http://www.w3.org/2000/svg" xmlns:xlink="http://www.w3.org/1999/xlink" x="0px" y="0px"
	 width="50px" height="50px" viewBox="0 0 50 50" style="enable-background:new 0 0 50 50;" xml:space="preserve">
<style type="text/css">
	.st0{fill:none;}
	.st1{fill-rule:evenodd;clip-rule:evenodd;}
</style>
<g>
	<path d="M22.2,32.5c0-1.2,0.1-2.3,0.3-3.3c0.2-0.9,0.6-1.9,1.2-2.8l5.3-7.9c1-1.5,1.5-2.9,1.5-4.2c0-1.8-0.6-3.2-1.7-4.2
		c-1.1-1-2.3-1.5-3.6-1.5c-1.6,0-2.9,0.5-3.9,1.5c-1.2,1.1-1.7,2.9-1.7,5.4h-6.3v-1.3c0-3.5,1.2-6.4,3.5-8.6c2.3-2.3,5-3.4,8.1-3.5
		c3.2,0,5.9,1.1,8.2,3.2c2.4,2.2,3.6,5.2,3.6,8.9c0,2.7-0.7,4.9-1.9,6.7l-5.4,8c-0.7,1.1-1.1,2.4-1,4v3.6h-6.3V32.5z M22.2,41.3h6.3
		v6.5h-6.3V41.3z"/>
</g>
</svg>
