<?xml version="1.0" encoding="utf-8"?>
<!-- Generator: Adobe Illustrator 18.1.0, SVG Export Plug-In . SVG Version: 6.00 Build 0)  -->
<!DOCTYPE svg PUBLIC "-//W3C//DTD SVG 1.1//EN" "http://www.w3.org/Graphics/SVG/1.1/DTD/svg11.dtd">
<svg version="1.1" id="Layer_2" xmlns="http://www.w3.org/2000/svg" xmlns:xlink="http://www.w3.org/1999/xlink" x="0px" y="0px"
	 width="50px" height="50px" viewBox="0 0 50 50" style="enable-background:new 0 0 50 50;" xml:space="preserve">
<style type="text/css">
	.st0{fill:none;}
	.st1{fill-rule:evenodd;clip-rule:evenodd;}
</style>
<path d="M9.7,3c0,0,0.1,0,0.1,0c0.9,1.3,5.5,8.3,6.4,9.7c0,0.1,0,0.5-0.3,1c-0.3,0.5-1.2,2.1-2.4,4.3l-1,1.7l1.1,1.6
	c0.8,1.2,2.8,3.8,6.8,7.8c4,4,6.5,6,7.7,6.8l1.6,1.1l1.7-1c1.6-0.9,3.6-2.1,4.3-2.4c0.5-0.3,0.9-0.3,1-0.3c0,0,0,0,0,0
	c1.2,0.7,8.4,5.5,9.7,6.4c0,0.1,0,0.4-0.2,0.7c-2,2.7-4.7,5.6-5.8,6C34.6,46.1,26.4,41,17.4,32C8.4,23,3.4,14.8,3.1,9.1
	C3.5,8,6.3,5.2,9,3.2C9.2,3.1,9.5,3,9.7,3 M9.7,0C8.9,0,8,0.2,7.2,0.8C7.2,0.8-0.1,6,0,9c0.3,8.4,8.4,18.4,15.3,25.2
	c6.8,6.8,16.7,15,25.2,15.3h0.1c3,0,8.2-7.2,8.2-7.3c1.4-2,0.9-4.1-0.4-5c-0.8-0.5-9-6-10-6.7c-0.4-0.3-1-0.4-1.6-0.4
	c-0.8,0-1.6,0.2-2.4,0.7c-0.8,0.4-3.2,1.8-4.4,2.5c-1-0.7-3.5-2.6-7.3-6.5c-3.8-3.8-5.7-6.3-6.4-7.3c0.7-1.2,2-3.6,2.5-4.4
	c0.8-1.5,0.9-3,0.2-4c-0.6-1-6.1-9.2-6.6-10C11.7,0.4,10.7,0,9.7,0L9.7,0z"/>
</svg>
