<?xml version="1.0" encoding="utf-8"?>
<!-- Generator: Adobe Illustrator 18.1.0, SVG Export Plug-In . SVG Version: 6.00 Build 0)  -->
<!DOCTYPE svg PUBLIC "-//W3C//DTD SVG 1.1//EN" "http://www.w3.org/Graphics/SVG/1.1/DTD/svg11.dtd">
<svg version="1.1" id="Layer_2" xmlns="http://www.w3.org/2000/svg" xmlns:xlink="http://www.w3.org/1999/xlink" x="0px" y="0px"
	 width="50px" height="18.5px" viewBox="0 0 50 18.5" style="enable-background:new 0 0 50 18.5;" xml:space="preserve">
<style type="text/css">
	.st0{fill:none;}
	.st1{fill-rule:evenodd;clip-rule:evenodd;}
</style>
<g>
	<path d="M34,16.1L26.7,0h-5.2l-8.2,18.5h5.7L24.1,6l2.2,5.2h-3l-1.6,3.9h6.2l1.4,3.3h3.1c1,0,1.8-0.8,1.8-1.7
		C34.1,16.5,34,16.4,34,16.1L34,16.1z M17.3,3.5L17.3,3.5l1.5-3.5H0v4.5h5.8v13.9h5.4V4.6h4.4C16.3,4.6,17,4.2,17.3,3.5z M40.6,14
		V0.2h-5.4v18.3h11.6c0.8,0,1.4-0.5,1.7-1l0,0l1.5-3.4L40.6,14L40.6,14z"/>
</g>
</svg>
