<?xml version="1.0" encoding="utf-8"?>
<!-- Generator: Adobe Illustrator 18.1.0, SVG Export Plug-In . SVG Version: 6.00 Build 0)  -->
<!DOCTYPE svg PUBLIC "-//W3C//DTD SVG 1.1//EN" "http://www.w3.org/Graphics/SVG/1.1/DTD/svg11.dtd">
<svg version="1.1" id="Layer_2" xmlns="http://www.w3.org/2000/svg" xmlns:xlink="http://www.w3.org/1999/xlink" x="0px" y="0px"
	 width="50px" height="14px" viewBox="0 0 50 14" style="enable-background:new 0 0 50 14;" xml:space="preserve">
<style type="text/css">
	.st0{fill:none;}
	.st1{fill-rule:evenodd;clip-rule:evenodd;}
	.st2{fill:#333E46;}
</style>
<g>
	<path d="M1.1,12.6V1.2h2.5v9.1h5.7v2.3H1.1z"/>
	<path d="M16.1,12.8c-3.5,0-6.1-2.6-6.1-5.9v0c0-3.2,2.6-5.9,6.1-5.9c3.5,0,6.1,2.6,6.1,5.9v0C22.2,10.2,19.6,12.8,16.1,12.8z
		 M19.6,6.9c0-2-1.4-3.6-3.5-3.6c-2,0-3.4,1.6-3.4,3.6v0c0,2,1.4,3.6,3.5,3.6C18.2,10.5,19.6,8.9,19.6,6.9L19.6,6.9z"/>
	<path d="M29.9,12.8c-3.6,0-6-2.5-6-5.9v0c0-3.2,2.5-5.9,6-5.9c2.1,0,3.3,0.6,4.5,1.6l-1.6,1.9c-0.9-0.7-1.7-1.2-3-1.2
		c-1.8,0-3.3,1.6-3.3,3.6v0c0,2.1,1.4,3.6,3.5,3.6c0.9,0,1.7-0.2,2.4-0.7V8.2h-2.5V6h5v5C33.7,12,32,12.8,29.9,12.8z"/>
	<path d="M42.8,12.8c-3.5,0-6.1-2.6-6.1-5.9v0c0-3.2,2.6-5.9,6.1-5.9c3.5,0,6.1,2.6,6.1,5.9v0C48.9,10.2,46.3,12.8,42.8,12.8z
		 M46.3,6.9c0-2-1.4-3.6-3.5-3.6c-2,0-3.4,1.6-3.4,3.6v0c0,2,1.4,3.6,3.5,3.6C44.9,10.5,46.3,8.9,46.3,6.9L46.3,6.9z"/>
</g>
</svg>
