<?xml version="1.0" encoding="utf-8"?>
<!-- Generator: Adobe Illustrator 18.1.0, SVG Export Plug-In . SVG Version: 6.00 Build 0)  -->
<!DOCTYPE svg PUBLIC "-//W3C//DTD SVG 1.1//EN" "http://www.w3.org/Graphics/SVG/1.1/DTD/svg11.dtd">
<svg version="1.1" id="Layer_2" xmlns="http://www.w3.org/2000/svg" xmlns:xlink="http://www.w3.org/1999/xlink" x="0px" y="0px"
	 width="50px" height="40px" viewBox="0 0 50 40" style="enable-background:new 0 0 50 40;" xml:space="preserve">
<style type="text/css">
	.st0{fill:none;}
	.st1{fill-rule:evenodd;clip-rule:evenodd;}
</style>
<g id="communication_-_email_envelope_3_">
	<g>
		<path class="st1" d="M49.7,1.8C49.7,1.7,49.7,1.7,49.7,1.8c0-0.2,0-0.3-0.1-0.5c0-0.1-0.1-0.2-0.1-0.3c0-0.1-0.1-0.1-0.1-0.2
			c0-0.1-0.1-0.1-0.1-0.2c-0.1-0.1-0.1-0.1-0.2-0.1c0,0,0,0-0.1,0c-0.2-0.1-0.3-0.2-0.5-0.2c0,0,0,0-0.1,0c-0.1,0-0.2,0-0.4,0H1.6
			c-0.1,0-0.2,0-0.4,0c0,0-0.1,0-0.1,0C1,0.3,0.9,0.4,0.7,0.5c0,0,0,0-0.1,0c-0.1,0-0.1,0.1-0.2,0.1C0.4,0.7,0.4,0.8,0.3,0.9
			C0.3,0.9,0.2,1,0.2,1C0.2,1.1,0.1,1.2,0.1,1.3C0,1.4,0,1.6,0,1.7c0,0,0,0,0,0.1c0,0,0,0,0,0v36.6C0,39.3,0.7,40,1.6,40h46.6
			c0.9,0,1.6-0.7,1.6-1.6L49.7,1.8C49.7,1.8,49.7,1.8,49.7,1.8z M43.7,3.4L24.8,18.5L5.9,3.4H43.7z M45,36.9H4.7
			c-0.9,0-1.6-0.7-1.6-1.6V5l20.5,16.4c0,0,0,0.1,0.1,0.1c0.3,0.3,0.7,0.5,1.1,0.4c0.4,0,0.8-0.1,1.1-0.4c0,0,0-0.1,0.1-0.1L46.6,5
			v30.3C46.6,36.2,45.9,36.9,45,36.9z"/>
	</g>
</g>
</svg>
