<?xml version="1.0" encoding="utf-8"?>
<!-- Generator: Adobe Illustrator 18.1.0, SVG Export Plug-In . SVG Version: 6.00 Build 0)  -->
<!DOCTYPE svg PUBLIC "-//W3C//DTD SVG 1.1//EN" "http://www.w3.org/Graphics/SVG/1.1/DTD/svg11.dtd">
<svg version="1.1" id="Layer_2" xmlns="http://www.w3.org/2000/svg" xmlns:xlink="http://www.w3.org/1999/xlink" x="0px" y="0px"
	 width="50px" height="50px" viewBox="0 0 50 50" style="enable-background:new 0 0 50 50;" xml:space="preserve">
<style type="text/css">
	.st0{fill:none;}
	.st1{fill-rule:evenodd;clip-rule:evenodd;}
</style>
<g>
	<g>
		<g>
			<path d="M43.7,22.3c0,0.6-0.2,1.3-0.7,1.8L27.4,40.9c-0.5,0.5-1.2,0.8-1.9,0.8c-0.7,0-1.4-0.3-1.9-0.8L7.9,24.1
				c-1-1.1-0.9-2.7,0.1-3.7c1.1-1,2.7-0.9,3.7,0.1l13.7,14.7l13.7-14.7c1-1.1,2.7-1.1,3.7-0.1C43.4,20.9,43.7,21.6,43.7,22.3z"/>
		</g>
		<g>
			<path d="M28.1,2.9v33.5c0,1.5-1.2,2.6-2.6,2.6c-1.5,0-2.6-1.2-2.6-2.6V2.9c0-1.5,1.2-2.6,2.6-2.6C26.9,0.3,28.1,1.5,28.1,2.9z"/>
		</g>
	</g>
	<g>
		<g>
			<path d="M3.7,44.9h42.9c1.9,0,3.4,1.1,3.4,2.6S48.5,50,46.6,50H3.7c-1.9,0-3.4-1.1-3.4-2.6S1.9,44.9,3.7,44.9z"/>
		</g>
	</g>
</g>
</svg>
