<?xml version="1.0" encoding="utf-8"?>
<!-- Generator: Adobe Illustrator 18.1.0, SVG Export Plug-In . SVG Version: 6.00 Build 0)  -->
<!DOCTYPE svg PUBLIC "-//W3C//DTD SVG 1.1//EN" "http://www.w3.org/Graphics/SVG/1.1/DTD/svg11.dtd">
<svg version="1.1" id="Layer_2" xmlns="http://www.w3.org/2000/svg" xmlns:xlink="http://www.w3.org/1999/xlink" x="0px" y="0px"
	 width="50px" height="50px" viewBox="0 0 50 50" style="enable-background:new 0 0 50 50;" xml:space="preserve">
<style type="text/css">
	.st0{fill:none;}
	.st1{fill-rule:evenodd;clip-rule:evenodd;}
</style>
<path d="M25,0.6C11.5,0.6,0.6,11.5,0.6,25c0,13.5,10.9,24.4,24.4,24.4S49.4,38.5,49.4,25C49.4,11.5,38.5,0.6,25,0.6z M27,40h-4v-4h4
	V40z M31.5,22.4l-3.7,5.2c-0.5,0.7-0.8,1.6-0.8,2.6V33h-4v-3.1c0-0.8,0.1-1.5,0.3-2.2c0.1-0.6,0.4-1.2,0.8-1.8l3.5-5.2
	c0.7-1,1-1.9,1-2.8c0-1.2-0.4-2.1-1.1-2.8c-0.7-0.7-1.5-1-2.4-1c-1.1,0-1.9,0.4-2.6,1.1C21.8,16,21.4,17,21.4,19H17v-1.1
	c0-2.3,0.9-4.2,2.4-5.7c1.5-1.5,3.3-2.3,5.4-2.3c2.1,0,4,0.7,5.5,2.1c1.6,1.5,2.4,3.4,2.4,5.9C32.7,19.7,32.3,21.2,31.5,22.4z"/>
</svg>
