<?xml version="1.0" encoding="utf-8"?>
<!-- Generator: Adobe Illustrator 18.1.0, SVG Export Plug-In . SVG Version: 6.00 Build 0)  -->
<!DOCTYPE svg PUBLIC "-//W3C//DTD SVG 1.1//EN" "http://www.w3.org/Graphics/SVG/1.1/DTD/svg11.dtd">
<svg version="1.1" id="Layer_2" xmlns="http://www.w3.org/2000/svg" xmlns:xlink="http://www.w3.org/1999/xlink" x="0px" y="0px"
	 width="50px" height="50px" viewBox="0 0 50 50" style="enable-background:new 0 0 50 50;" xml:space="preserve">
<style type="text/css">
	.st0{fill:none;}
	.st1{fill-rule:evenodd;clip-rule:evenodd;}
</style>
<g>
	<path d="M46.6,38c2.5,2.5,2.5,6.6,0,9.1c-1.3,1.3-2.9,1.9-4.6,1.9c-1.7,0-3.3-0.6-4.6-1.9l-13-13l-13,13C10.2,48.4,8.6,49,6.9,49
		s-3.3-0.6-4.6-1.9c-2.5-2.5-2.5-6.6,0-9.1l13-13l-13-13c-2.5-2.5-2.5-6.6,0-9.1c2.5-2.5,6.6-2.5,9.1,0l13,13l13-13
		c2.5-2.5,6.6-2.5,9.1,0c2.5,2.5,2.5,6.6,0,9.1l-13,13L46.6,38z"/>
</g>
</svg>
